<?xml version="1.0" standalone="no"?>
<!DOCTYPE svg PUBLIC "-//W3C//DTD SVG 20010904//EN"
 "http://www.w3.org/TR/2001/REC-SVG-20010904/DTD/svg10.dtd">
<svg version="1.0" xmlns="http://www.w3.org/2000/svg"
 width="225.000000pt" height="225.000000pt" viewBox="0 0 225.000000 225.000000"
 preserveAspectRatio="xMidYMid meet">

<g transform="translate(0.000000,225.000000) scale(0.100000,-0.100000)"
fill="#000000" stroke="none">
<path d="M829 1979 c-51 -30 -69 -66 -69 -138 l0 -61 -240 0 c-260 0 -324 -8
-371 -47 -64 -54 -64 -57 -64 -398 0 -342 0 -344 65 -399 68 -57 321 -107 723
-142 66 -6 67 -6 67 -35 0 -70 63 -148 137 -168 47 -13 49 -13 96 0 74 20 137
98 137 168 0 35 5 36 155 46 165 11 476 63 552 92 12 5 14 -27 11 -220 l-3
-225 -30 -44 c-20 -28 -49 -53 -84 -70 l-55 -28 -732 0 -732 0 -53 28 c-34 17
-65 44 -84 71 l-30 43 -3 171 c-3 206 -5 219 -35 215 -22 -3 -22 -4 -22 -198
0 -224 5 -244 91 -319 83 -73 59 -71 869 -71 810 0 786 -2 869 71 87 77 91 89
94 363 l3 239 29 36 c46 57 52 111 48 414 -3 299 -5 308 -67 360 -47 39 -111
47 -371 47 l-240 0 0 61 c0 74 -20 113 -72 140 -34 17 -61 19 -295 19 -243 0
-260 -2 -294 -21z m576 -64 c21 -20 25 -34 25 -80 l0 -55 -305 0 -305 0 0 55
c0 46 4 60 25 80 l24 25 256 0 256 0 24 -25z m-845 -611 l0 -416 -52 7 c-98
14 -89 -22 -89 345 1 351 -3 395 -34 395 -19 0 -20 -10 -26 -135 -4 -74 -7
-233 -8 -352 0 -120 -4 -218 -7 -218 -3 0 -34 7 -68 16 -71 18 -112 52 -126
103 -11 39 -12 543 -2 576 25 77 72 94 265 95 l147 0 0 -416z m1068 -8 c1
-229 -1 -416 -6 -416 -4 0 -43 -4 -87 -9 -44 -5 -113 -12 -152 -15 l-73 -6 0
55 c0 46 -4 60 -25 80 -23 24 -29 25 -160 25 -131 0 -137 -1 -160 -25 -21 -20
-25 -34 -25 -80 0 -46 -3 -55 -17 -55 -29 0 -235 19 -270 25 l-33 6 0 413 c0
227 2 415 4 417 2 2 229 4 503 3 l498 -1 3 -417z m399 409 c77 -32 78 -36 81
-340 2 -148 1 -284 -3 -302 -13 -68 -55 -97 -187 -129 l-28 -6 0 345 c0 279
-3 346 -13 350 -35 13 -37 -5 -39 -358 l-3 -349 -60 -13 c-33 -7 -66 -12 -72
-13 -10 0 -13 88 -13 408 0 225 3 412 7 415 3 4 71 7 149 7 106 0 153 -4 181
-15z m-779 -866 c2 -96 1 -108 -21 -140 -32 -48 -91 -68 -143 -48 -22 8 -48
29 -61 48 -20 30 -23 47 -23 136 0 56 3 105 7 109 4 3 59 5 122 4 l116 -3 3
-106z"/>
</g>
</svg>
